<?xml version="1.0" encoding="utf-8"?>
<!-- Generator: Adobe Illustrator 20.1.0, SVG Export Plug-In . SVG Version: 6.00 Build 0)  -->
<svg version="1.1" id="Layer_1" xmlns="http://www.w3.org/2000/svg" xmlns:xlink="http://www.w3.org/1999/xlink" x="0px" y="0px"
	 viewBox="0 0 88.6 84.1" style="enable-background:new 0 0 88.6 84.1;" xml:space="preserve">
<style type="text/css">
	.st0{fill:none;stroke:#FFC329;stroke-width:4.301;}
	.st1{fill:#FFC329;}
	.st2{fill:#FFFFFF;}
	.st3{fill:none;stroke:#FFC329;stroke-width:3.995;}
</style>
<g>
	<path class="st0" d="M43.1,53.9l-1.7,22.9 M36.8,51.9L25.3,71.9 M31.8,47.4L13,60.7 M29.2,41.3l-22.6,4 M29.4,34.7L7.3,28.5
		 M32.4,28.8L15,13.7 M37.7,24.6l-9.5-21 M44.1,23l0.6-23 M51.1,24.6l9.5-21 M56.4,28.8l17.4-15.1 M59.4,34.7l22.1-6.3 M59.6,41.3
		l22.6,4 M57,47.4l18.7,13.3 M52,51.9l11.5,19.9 M45.7,53.9l1.7,22.9"/>
	<path class="st1" d="M44,61c11.9,0,21.6-9.7,21.6-21.6c0-11.9-9.7-21.6-21.6-21.6c-11.9,0-21.6,9.7-21.6,21.6
		C22.4,51.3,32.1,61,44,61"/>
	<path class="st2" d="M37.4,84.1c22.2,0,40.2-9.3,40.2-20.7c0-11.4-18-20.7-40.2-20.7C15.2,42.7-2.8,52-2.8,63.4
		C-2.8,74.9,15.2,84.1,37.4,84.1"/>
	<path class="st3" d="M-55.1,53.4c8.9-7.4,26.7-7.4,35.6,0c8.9,7.4,26.7,7.4,35.6,0c8.9-7.4,26.7-7.4,35.6,0
		c8.9,7.4,26.7,7.4,35.6,0"/>
	<path class="st3" d="M-46.7,71.9c7.8-7.4,23.3-7.4,31.1,0c7.8,7.4,23.3,7.4,31.1,0c7.8-7.4,23.3-7.4,31.1,0
		c7.8,7.4,23.3,7.4,31.1,0"/>
</g>
</svg>
