<?xml version="1.0" encoding="utf-8"?>
<!-- Generator: Adobe Illustrator 20.1.0, SVG Export Plug-In . SVG Version: 6.00 Build 0)  -->
<svg version="1.1" id="Layer_1" xmlns="http://www.w3.org/2000/svg" xmlns:xlink="http://www.w3.org/1999/xlink" x="0px" y="0px"
	 viewBox="0 0 563.4 84.1" style="enable-background:new 0 0 563.4 84.1;" xml:space="preserve">
<style type="text/css">
	.st0{fill:#FFC329;}
	.st1{fill:none;stroke:#FFC329;stroke-width:4.301;}
	.st2{fill:#FFFFFF;}
	.st3{fill:none;stroke:#FFC329;stroke-width:3.995;}
</style>
<g>
	<g>
		<path d="M191.9,35.5h-4.4c0-0.9-0.9-3.8-2.6-8.7h-12c-1.7,4.8-2.6,7.7-2.6,8.7h-4.2c0-0.5,1.8-4.9,5.3-13.2
			c3.6-8.3,5.3-12.9,5.3-13.7h4.8c0,0.8,1.7,5.3,5.1,13.5C190.2,30.3,191.9,34.8,191.9,35.5z M184,24.1c-3.2-8.1-4.9-12.4-4.9-12.9
			h-0.2c0,0.4-1.7,4.7-5,12.9H184z"/>
		<path d="M214.2,15.2c0,3.1-1.2,5.5-3.6,7.1c-2.4,1.6-5.6,2.3-9.6,2.3c-0.5,0-1,0-1.3,0c0,3,0.1,6.7,0.3,10.9h-4
			c0.2-3.9,0.3-8.6,0.3-14.2c0-4.8-0.1-9-0.3-12.8h3c0.3,0,1.2,0,2.7-0.1c1.5,0,2.8-0.1,3.8-0.1c2.7,0,4.8,0.6,6.3,1.8
			C213.4,11.4,214.2,13.1,214.2,15.2z M210.8,16.4c0-3.5-2.4-5.3-7.3-5.3c-1.2,0-2.5,0.1-4,0.3c0.1,2.3,0.1,5.8,0.1,10.5
			c0.5,0,1.1,0,1.8,0C207.6,22,210.8,20.1,210.8,16.4z"/>
		<path d="M240.7,35.5h-4.4c0-0.9-0.9-3.8-2.6-8.7h-12c-1.7,4.8-2.6,7.7-2.6,8.7H215c0-0.5,1.8-4.9,5.3-13.2
			c3.6-8.3,5.3-12.9,5.3-13.7h4.8c0,0.8,1.7,5.3,5.1,13.5C239,30.3,240.7,34.8,240.7,35.5z M232.7,24.1c-3.2-8.1-4.9-12.4-4.9-12.9
			h-0.2c0,0.4-1.7,4.7-5,12.9H232.7z"/>
		<path d="M265.2,35.5h-4c-1.3-4-2.3-6.6-2.9-7.9c-0.8-1.6-1.7-2.7-2.6-3.1c-0.8-0.4-2.2-0.6-4.2-0.6c-1.2,0-2.2,0-3.1,0
			c0,4.5,0.1,8.3,0.2,11.5h-3.9c0.2-4.3,0.3-9,0.3-14.2c0-4.9-0.1-9.1-0.3-12.8h2.9c0.6,0,1.4,0,2.4-0.1c1,0,2-0.1,3.3-0.1
			c6,0,9.1,2.1,9.1,6.3c0,3.5-1.7,5.9-5.1,7.3v0.2c1.5,0.5,2.7,1.5,3.7,3.2C261.8,26.7,263.2,30.1,265.2,35.5z M258.9,16.1
			c0-3.3-2.2-4.9-6.7-4.9c-1.6,0-2.9,0.1-4,0.3c0.1,2.4,0.1,5.7,0.1,9.8c0.8,0,1.6,0,2.4,0C256.1,21.3,258.9,19.5,258.9,16.1z"/>
		<path d="M287.7,8.5l-0.1,2.9c-2.7-0.1-5.6-0.2-8.5-0.2c0,2.7,0,6,0,10.1c0,4.5,0.1,9.2,0.2,14.2h-3.8c0.2-4.7,0.2-9.4,0.2-14.2
			c0-4,0-7.4-0.1-10.1c-2,0-4.9,0.1-8.6,0.2l0.1-3H287.7z"/>
		<path d="M321,35.5h-3.9c0-3.1-0.2-7.5-0.6-13.4c-0.4-5.8-0.7-9.3-0.7-10.5h-0.2c-1.4,4.5-3.1,9.4-5.3,14.6
			c-2.1,5.3-3.2,8.3-3.2,9.2h-2.8c0-1-1-4.1-3-9.4c-2-5.3-3.2-8.8-3.8-10.6s-0.9-3.1-1.1-3.8h-0.2c0,1.9-0.3,5.7-0.8,11.5
			c-0.5,5.7-0.8,9.9-0.8,12.4h-3.6c0-0.1,0.5-3.9,1.4-11.4c0.9-7.5,1.4-12.7,1.4-15.6h5.4c0,1.5,1.1,5.3,3.3,11.4
			c2.2,6.1,3.3,9.8,3.3,11h0.2c0-1.3,1.2-5,3.7-11.1c2.5-6.1,3.7-9.9,3.7-11.4h5.3c0,2.9,0.3,8.1,1,15.5
			C320.6,31.5,321,35.3,321,35.5z"/>
		<path d="M345.1,32.4l-0.1,3.1h-16.7c0.2-4.3,0.3-9,0.3-14.2c0-4.9-0.1-9.1-0.3-12.8H344l-0.2,3.1c-3.8-0.2-7.8-0.2-12.1-0.2
			c0.1,2.1,0.1,5,0.1,8.7c3.7,0,6.9-0.1,9.8-0.2v3.1c-3.1-0.1-6.3-0.2-9.8-0.2c0,3.6,0.1,6.9,0.2,10C336.6,32.7,341,32.6,345.1,32.4
			z"/>
		<path d="M371.2,35.5h-2.9c0-0.2-2.3-3.5-6.8-9.9c-4.7-6.7-7.4-10.9-8.1-12.7h-0.2c0.2,3.3,0.4,6.2,0.4,8.6c0,4.6,0.1,9.3,0.3,14
			h-3.5c0.2-4.5,0.4-9.2,0.4-14.2c0-4.9-0.1-9.1-0.4-12.8h4c0,0.4,2.1,3.5,6.3,9.4c4.4,6.2,6.9,10.3,7.5,12.1h0.2
			c-0.2-3.4-0.4-6.2-0.4-8.6c0-5.1-0.1-9.4-0.3-13h3.5c-0.2,3.7-0.4,7.9-0.4,12.8C370.8,26.3,370.9,31,371.2,35.5z"/>
		<path d="M396.2,8.5l-0.1,2.9c-2.7-0.1-5.6-0.2-8.5-0.2c0,2.7,0,6,0,10.1c0,4.5,0.1,9.2,0.2,14.2H384c0.2-4.7,0.2-9.4,0.2-14.2
			c0-4,0-7.4-0.1-10.1c-2,0-4.9,0.1-8.6,0.2l0.1-3H396.2z"/>
		<path d="M429.5,35c-2.3,0.7-4.6,1.1-6.9,1.1c-4.8,0-8.5-1.3-11-3.9c-2.5-2.6-3.7-5.8-3.7-9.6c0-3.9,1.3-7.2,4-10.1
			c2.7-2.9,6.4-4.3,11.1-4.3c1.7,0,3.3,0.2,4.9,0.6l-0.5,3.4c-2.3-0.6-4.1-0.8-5.5-0.8c-3.3,0-5.9,1-7.7,3c-1.8,2-2.7,4.5-2.7,7.5
			c0,3,1,5.6,3.1,7.9c2,2.3,4.9,3.4,8.6,3.4c0.7,0,1.7-0.1,3-0.3c-0.2-1.4-0.4-3.1-0.4-5c0-1.6-0.1-3.2-0.3-4.7h3.8
			c-0.1,1.8-0.2,3.8-0.2,5.8C429.3,29.9,429.4,31.9,429.5,35z"/>
		<path d="M458.1,35.5h-4.4c0-0.9-0.9-3.8-2.6-8.7h-12c-1.7,4.8-2.6,7.7-2.6,8.7h-4.2c0-0.5,1.8-4.9,5.3-13.2
			c3.6-8.3,5.3-12.9,5.3-13.7h4.8c0,0.8,1.7,5.3,5.1,13.5C456.4,30.3,458.1,34.8,458.1,35.5z M450.2,24.1
			c-3.2-8.1-4.9-12.4-4.9-12.9h-0.2c0,0.4-1.7,4.7-5,12.9H450.2z"/>
		<path d="M478.7,32.5l-0.1,3h-16.3c0.2-3.4,0.2-8.1,0.2-14.2c0-5.2-0.1-9.5-0.2-12.8h3.9c-0.2,2.8-0.2,7.1-0.2,12.8
			c0,4.7-0.1,8.5-0.2,11.4C469.8,32.7,474.1,32.6,478.7,32.5z"/>
		<path d="M499.9,32.4l-0.1,3.1H483c0.2-4.3,0.3-9,0.3-14.2c0-4.9-0.1-9.1-0.3-12.8h15.7l-0.2,3.1c-3.8-0.2-7.8-0.2-12.1-0.2
			c0.1,2.1,0.1,5,0.1,8.7c3.7,0,6.9-0.1,9.8-0.2v3.1c-3.1-0.1-6.3-0.2-9.8-0.2c0,3.6,0.1,6.9,0.2,10
			C491.4,32.7,495.7,32.6,499.9,32.4z"/>
		<path d="M528.6,21.6c0,4.5-1.3,8-3.9,10.7c-2.6,2.7-5.6,4-9.1,4c-3.3,0-6.2-1.2-8.7-3.7c-2.5-2.5-3.7-5.8-3.7-9.9
			c0-4.5,1.3-8.1,3.9-10.7c2.6-2.6,5.6-4,9.1-4c3.3,0,6.2,1.2,8.6,3.7C527.4,14.1,528.6,17.4,528.6,21.6z M524.9,22.1
			c0-3.6-0.9-6.3-2.8-8.3c-1.9-2-4-2.9-6.5-2.9c-2.3,0-4.3,1-6,3.1c-1.8,2.1-2.7,4.8-2.7,8.2c0,3.6,0.9,6.3,2.8,8.3
			c1.9,2,4,2.9,6.5,2.9c2.3,0,4.3-1,6-3.1C524.1,28.2,524.9,25.5,524.9,22.1z"/>
		<path d="M555.4,35.5h-2.9c0-0.2-2.3-3.5-6.8-9.9c-4.7-6.7-7.4-10.9-8.1-12.7h-0.2c0.2,3.3,0.4,6.2,0.4,8.6c0,4.6,0.1,9.3,0.3,14
			h-3.5c0.2-4.5,0.4-9.2,0.4-14.2c0-4.9-0.1-9.1-0.4-12.8h4c0,0.4,2.1,3.5,6.3,9.4c4.4,6.2,6.9,10.3,7.5,12.1h0.2
			c-0.2-3.4-0.4-6.2-0.4-8.6c0-5.1-0.1-9.4-0.3-13h3.5c-0.2,3.7-0.4,7.9-0.4,12.8C555,26.3,555.1,31,555.4,35.5z"/>
	</g>
	<g>
		<path class="st0" d="M268.7,51.9l-0.1,2c-1.9-0.1-3.8-0.1-5.8-0.1c0,1.8,0,4.1,0,6.9c0,3.1,0,6.3,0.1,9.7h-2.6
			c0.1-3.2,0.2-6.5,0.2-9.7c0-2.8,0-5.1-0.1-6.9c-1.4,0-3.4,0.1-5.9,0.2l0.1-2H268.7z"/>
		<path class="st0" d="M287.7,60.8c0,3.1-0.9,5.5-2.7,7.3c-1.8,1.8-3.9,2.7-6.2,2.7c-2.2,0-4.2-0.8-5.9-2.5
			c-1.7-1.7-2.5-3.9-2.5-6.8c0-3.1,0.9-5.5,2.7-7.4c1.8-1.8,3.9-2.7,6.2-2.7c2.2,0,4.2,0.8,5.9,2.5C286.9,55.7,287.7,58,287.7,60.8z
			 M285.2,61.2c0-2.4-0.6-4.3-1.9-5.7c-1.3-1.3-2.8-2-4.4-2c-1.6,0-2.9,0.7-4.1,2.1c-1.2,1.4-1.8,3.3-1.8,5.6c0,2.4,0.6,4.3,1.9,5.7
			c1.3,1.3,2.8,2,4.4,2c1.5,0,2.9-0.7,4.1-2.1C284.6,65.4,285.2,63.5,285.2,61.2z"/>
		<path class="st0" d="M305.8,70.4H303c-0.9-2.7-1.6-4.5-2-5.4c-0.5-1.1-1.1-1.8-1.8-2.1c-0.5-0.3-1.5-0.4-2.8-0.4
			c-0.8,0-1.5,0-2.1,0c0,3.1,0.1,5.7,0.2,7.9h-2.6c0.1-2.9,0.2-6.2,0.2-9.7c0-3.3-0.1-6.2-0.2-8.8h2c0.4,0,1,0,1.6,0
			c0.7,0,1.4,0,2.2,0c4.1,0,6.2,1.4,6.2,4.3c0,2.4-1.2,4-3.5,5v0.1c1,0.3,1.9,1,2.5,2.2C303.4,64.4,304.4,66.7,305.8,70.4z
			 M301.4,57.1c0-2.2-1.5-3.4-4.6-3.4c-1.1,0-2,0.1-2.7,0.2c0.1,1.6,0.1,3.9,0.1,6.7c0.6,0,1.1,0,1.6,0
			C299.6,60.6,301.4,59.4,301.4,57.1z"/>
		<path class="st0" d="M323.3,70.4h-2.7c-0.9-2.7-1.6-4.5-2-5.4c-0.5-1.1-1.1-1.8-1.8-2.1c-0.5-0.3-1.5-0.4-2.8-0.4
			c-0.8,0-1.5,0-2.1,0c0,3.1,0.1,5.7,0.2,7.9h-2.6c0.1-2.9,0.2-6.2,0.2-9.7c0-3.3-0.1-6.2-0.2-8.8h2c0.4,0,1,0,1.6,0
			c0.7,0,1.4,0,2.2,0c4.1,0,6.2,1.4,6.2,4.3c0,2.4-1.2,4-3.5,5v0.1c1,0.3,1.9,1,2.5,2.2C321,64.4,322,66.7,323.3,70.4z M319,57.1
			c0-2.2-1.5-3.4-4.6-3.4c-1.1,0-2,0.1-2.7,0.2c0.1,1.6,0.1,3.9,0.1,6.7c0.6,0,1.1,0,1.6,0C317.1,60.6,319,59.4,319,57.1z"/>
		<path class="st0" d="M338.4,68.2l-0.1,2.1h-11.4c0.1-2.9,0.2-6.2,0.2-9.7c0-3.3-0.1-6.2-0.2-8.8h10.7l-0.1,2.1
			c-2.6-0.1-5.4-0.2-8.3-0.2c0.1,1.5,0.1,3.4,0.1,5.9c2.5,0,4.8-0.1,6.7-0.2v2.1c-2.1-0.1-4.3-0.1-6.7-0.1c0,2.4,0,4.7,0.1,6.8
			C332.6,68.4,335.6,68.4,338.4,68.2z"/>
		<path class="st0" d="M355.3,51.9c0,0.8-1.2,3.9-3.6,9.2c-2.4,5.4-3.6,8.4-3.6,9.2h-1.8c0-0.7-1.1-3.8-3.4-9.2
			c-2.3-5.4-3.4-8.5-3.4-9.3h2.7c0,0.7,0.9,3.4,2.6,7.9c1.7,4.5,2.6,7.1,2.6,7.7h0.1c0-0.7,0.9-3.3,2.6-7.7c1.7-4.4,2.6-7,2.6-7.9
			H355.3z"/>
		<path class="st0" d="M360.8,70.4h-2.7c0.1-3.1,0.2-6.3,0.2-9.7c0-3.3-0.1-6.3-0.2-8.8h2.7c-0.1,2.6-0.2,5.5-0.2,8.8
			C360.6,64.1,360.7,67.3,360.8,70.4z"/>
		<path class="st0" d="M377.7,68.2l-0.1,2.1h-11.4c0.1-2.9,0.2-6.2,0.2-9.7c0-3.3-0.1-6.2-0.2-8.8h10.7l-0.1,2.1
			c-2.6-0.1-5.4-0.2-8.3-0.2c0.1,1.5,0.1,3.4,0.1,5.9c2.5,0,4.8-0.1,6.7-0.2v2.1c-2.1-0.1-4.3-0.1-6.7-0.1c0,2.4,0,4.7,0.1,6.8
			C371.8,68.4,374.8,68.4,377.7,68.2z"/>
		<path class="st0" d="M388.3,51.9c-0.1,1.4-0.1,3-0.1,4.8c0,1.7,0,3.7,0,5.8c0,1.5-0.1,2.8-0.4,3.8c-0.3,1-0.7,1.8-1.2,2.5
			c-0.5,0.7-1.2,1.2-2.1,1.5c-0.9,0.3-1.9,0.5-3.1,0.5c-0.9,0-1.7-0.1-2.5-0.3l0.2-2.1c0.7,0.3,1.4,0.5,2.1,0.5
			c0.8,0,1.5-0.1,2.1-0.3c0.6-0.2,1.1-0.6,1.5-1.1c0.4-0.5,0.6-1.1,0.8-1.8c0.2-0.7,0.2-1.7,0.2-2.8c0-4.3-0.1-7.9-0.2-10.9H388.3z"
			/>
		<path class="st0" d="M408.1,70.4h-3c0-0.6-0.6-2.6-1.8-6h-8.2c-1.2,3.3-1.8,5.3-1.8,6h-2.9c0-0.3,1.2-3.4,3.7-9.1
			c2.4-5.7,3.7-8.8,3.7-9.4h3.3c0,0.6,1.2,3.6,3.5,9.3C407,66.8,408.1,69.8,408.1,70.4z M402.7,62.5c-2.2-5.5-3.3-8.5-3.3-8.8h-0.2
			c0,0.3-1.1,3.2-3.4,8.8H402.7z"/>
	</g>
	<g>
		<path class="st0" d="M428.5,65.3c0,3.7-2.7,5.5-8,5.5c-1.8,0-3.5-0.2-5-0.7l0.7-3.2c1.5,0.5,3,0.8,4.3,0.8c1.5,0,2.6-0.1,3.3-0.4
			c0.7-0.3,1-0.8,1-1.5c0-0.7-0.3-1.3-0.9-1.8c-0.5-0.4-1.6-1-3.3-1.7c-1.5-0.6-2.6-1.3-3.3-2.1c-0.9-1-1.4-2.1-1.4-3.5
			c0-1.6,0.6-2.9,1.8-3.8c1.2-0.9,2.9-1.4,5.2-1.4c1.9,0,3.4,0.2,4.7,0.5l-0.5,3.1c-1.3-0.5-2.7-0.7-4.1-0.7c-2.2,0-3.3,0.6-3.3,1.8
			c0,0.6,0.3,1.1,0.8,1.5c0.5,0.3,1.4,0.8,3,1.4c1.6,0.7,2.8,1.4,3.6,2.2C427.9,62.5,428.5,63.8,428.5,65.3z M427.1,46.4
			c0,0.2-0.5,0.8-1.4,2c-0.9,1.2-1.4,1.8-1.4,1.9h-3.4c0-0.1-0.5-0.7-1.4-1.9c-0.9-1.2-1.4-1.8-1.4-2h2.2c0.1,0.2,0.9,0.8,2.4,1.9
			c1.5-1.1,2.3-1.7,2.4-1.9H427.1z"/>
		<path class="st0" d="M444.9,56.7c0,2.3-0.8,3.9-2.5,5c-1.7,1.1-3.7,1.6-6.2,1.6c-0.4,0-0.8,0-0.9,0c0,1.8,0.1,4.1,0.2,7h-4
			c0.1-2.7,0.2-5.9,0.2-9.7c0-3.4-0.1-6.3-0.2-8.8h2.5c0.3,0,1,0,2,0c1,0,1.9,0,2.6,0c1.8,0,3.3,0.4,4.6,1.2
			C444.3,53.8,444.9,55.1,444.9,56.7z M441.2,57.5c0-2-1.3-3-4-3c-0.7,0-1.4,0.1-2.1,0.2c0.1,1.8,0.2,3.8,0.2,6.1c0.2,0,0.5,0,0.8,0
			C439.5,60.8,441.2,59.7,441.2,57.5z"/>
		<path class="st0" d="M463.1,70.4h-4.5c0-0.6-0.4-2.4-1.3-5.3h-6.5c-0.9,2.9-1.3,4.6-1.3,5.3h-4.3c0-0.4,1.1-3.4,3.3-9.1
			c2.2-5.7,3.3-8.8,3.3-9.4h5.4c0,0.5,1,3.6,3,9.2C462.1,66.8,463.1,69.8,463.1,70.4z M456.5,62.3c-1.6-4.9-2.4-7.5-2.4-7.9h-0.2
			c0,0.4-0.8,3-2.5,7.9H456.5z"/>
		<path class="st0" d="M480.5,70.4H477c0-0.4-1.3-2.4-3.9-6.1c-2.7-3.9-4.3-6.6-4.6-8h-0.2c0.2,2.1,0.4,3.9,0.4,5.6
			c0,2.3,0.1,5.2,0.2,8.5h-3.5c0.1-2.9,0.2-6.1,0.2-9.7c0-3.4-0.1-6.4-0.2-8.8h4.2c0,0.5,1.2,2.5,3.5,6c2.5,3.7,3.9,6.2,4.3,7.6h0.2
			c-0.2-2.1-0.3-4-0.3-5.7c0-2.6-0.1-5.2-0.2-7.9h3.5c-0.1,2.3-0.2,5.3-0.2,8.8C480.3,64.3,480.4,67.5,480.5,70.4z"/>
		<path class="st0" d="M496.7,67.2l-0.1,3.1h-12.1c0.1-2.9,0.2-6.1,0.2-9.7c0-3.4-0.1-6.4-0.2-8.8h11.5l-0.2,3.1
			c-2.8-0.2-5.4-0.2-7.7-0.2c0.1,1.3,0.1,2.9,0.1,4.7c2,0,4.1-0.1,6.3-0.2v3c-2.2-0.1-4.3-0.1-6.3-0.1c0,1.9,0,3.7,0.1,5.4
			C491.1,67.5,493.8,67.4,496.7,67.2z M495.5,46.4c0,0.2-0.5,0.8-1.4,2c-0.9,1.2-1.4,1.8-1.4,1.9h-3.4c0-0.1-0.5-0.7-1.4-1.9
			c-0.9-1.2-1.4-1.8-1.4-2h2.2c0.1,0.2,0.9,0.8,2.4,1.9c1.5-1.1,2.3-1.7,2.4-1.9H495.5z"/>
		<path class="st0" d="M511.8,67.3l-0.1,3.1h-11.8c0.1-2.6,0.2-5.8,0.2-9.7c0-3.6-0.1-6.5-0.2-8.8h4c-0.1,2.1-0.2,5.1-0.2,8.8
			c0,2.8-0.1,5.1-0.2,6.8C506.1,67.5,508.9,67.4,511.8,67.3z"/>
		<path class="st0" d="M526,65.3c0,3.7-2.7,5.5-8,5.5c-1.8,0-3.5-0.2-5-0.7l0.7-3.2c1.5,0.5,3,0.8,4.3,0.8c1.5,0,2.6-0.1,3.3-0.4
			c0.7-0.3,1-0.8,1-1.5c0-0.7-0.3-1.3-0.9-1.8c-0.5-0.4-1.6-1-3.3-1.7c-1.5-0.6-2.6-1.3-3.3-2.1c-0.9-1-1.4-2.1-1.4-3.5
			c0-1.6,0.6-2.9,1.8-3.8c1.2-0.9,2.9-1.4,5.2-1.4c1.9,0,3.4,0.2,4.7,0.5l-0.5,3.1c-1.3-0.5-2.7-0.7-4.1-0.7c-2.2,0-3.3,0.6-3.3,1.8
			c0,0.6,0.3,1.1,0.8,1.5c0.5,0.3,1.4,0.8,3,1.4c1.6,0.7,2.8,1.4,3.6,2.2C525.5,62.5,526,63.8,526,65.3z"/>
		<path class="st0" d="M544.1,70.4h-4.6c0-0.4-0.8-1.9-2.4-4.5c-1.7-2.7-2.9-4.1-3.6-4.1H533c0,2.2,0.1,5,0.2,8.6h-4
			c0.1-2.9,0.2-6.1,0.2-9.7c0-3.4-0.1-6.4-0.2-8.8h4c-0.1,2.6-0.2,5.1-0.2,7.4h0.3c0.4,0,1.5-1.2,3.1-3.5c1.6-2.3,2.5-3.6,2.5-3.9
			h4.2c0,0.3-0.9,1.5-2.6,3.5c-1.8,2.1-3.1,3.5-3.9,4v0.2c1,0.5,2.5,2.4,4.6,5.6C543.1,68.3,544.1,70,544.1,70.4z"/>
		<path class="st0" d="M563.4,60.8c0,2.9-0.9,5.3-2.7,7.2c-1.8,1.9-4,2.9-6.6,2.9c-2.5,0-4.6-0.9-6.3-2.6c-1.7-1.8-2.5-4-2.5-6.7
			c0-2.9,0.9-5.3,2.7-7.2c1.8-1.9,4-2.9,6.6-2.9c2.5,0,4.6,0.9,6.3,2.6C562.5,55.8,563.4,58.1,563.4,60.8z M559.4,61.2
			c0-2-0.5-3.6-1.5-4.8c-1-1.2-2.3-1.8-3.7-1.8c-1.4,0-2.6,0.6-3.5,1.9c-1,1.2-1.4,2.8-1.4,4.7c0,2,0.5,3.6,1.5,4.8
			c1,1.2,2.3,1.8,3.7,1.8c1.4,0,2.6-0.6,3.5-1.9C559,64.6,559.4,63.1,559.4,61.2z"/>
	</g>
	<path class="st1" d="M99.4,53.9l-1.7,22.9 M93.1,51.9L81.7,71.9 M88.1,47.4L69.4,60.7 M85.5,41.3l-22.6,4 M85.7,34.7l-22.1-6.3
		 M88.7,28.8L71.4,13.7 M94,24.6l-9.5-21 M100.4,23l0.6-23 M107.4,24.6l9.5-21 M112.7,28.8l17.4-15.1 M115.7,34.7l22.1-6.3
		 M115.9,41.3l22.6,4 M113.3,47.4l18.7,13.3 M108.3,51.9l11.5,19.9 M102,53.9l1.7,22.9"/>
	<path class="st0" d="M100.3,61c11.9,0,21.6-9.7,21.6-21.6c0-11.9-9.7-21.6-21.6-21.6c-11.9,0-21.6,9.7-21.6,21.6
		C78.8,51.3,88.4,61,100.3,61"/>
	<path class="st2" d="M93.7,84.1c22.2,0,40.2-9.3,40.2-20.7c0-11.4-18-20.7-40.2-20.7c-22.2,0-40.2,9.3-40.2,20.7
		C53.5,74.9,71.5,84.1,93.7,84.1"/>
	<path class="st3" d="M1.3,53.4c8.9-7.4,26.7-7.4,35.6,0c8.9,7.4,26.7,7.4,35.6,0c8.9-7.4,26.7-7.4,35.6,0c8.9,7.4,26.7,7.4,35.6,0"
		/>
	<path class="st3" d="M9.6,71.9c7.8-7.4,23.3-7.4,31.1,0c7.8,7.4,23.3,7.4,31.1,0c7.8-7.4,23.3-7.4,31.1,0c7.8,7.4,23.3,7.4,31.1,0"
		/>
</g>
</svg>
